2014022_C4_04_grf
version=1
nRows=34
nColumns=19
inDegrees=no
endheader
time	ground_force_1_vx	ground_force_1_vy	ground_force_1_vz	ground_force_1_px	ground_force_1_py	ground_force_1_pz	ground_force_1_mx	ground_force_1_my	ground_force_1_mz	ground_force_2_vx	ground_force_2_vy	ground_force_2_vz	ground_force_2_px	ground_force_2_py	ground_force_2_pz	ground_force_2_mx	ground_force_2_my	ground_force_2_mz
      0.86500000	     -7.51480437	    515.23307711	    -18.34625229	     -0.13157783	     -0.00200000	      0.33873276	      0.00000000	      1.77689265	      0.00000000	      0.00000000	      0.00000000	      0.00000000	      0.00000000	      0.00000000	      0.00000000	      0.00000000	      0.00000000	      0.00000000
      0.86600000	     -7.48840580	    514.80254531	    -18.20502728	     -0.13088261	     -0.00200000	      0.33871206	      0.00000000	      1.78834157	      0.00000000	      0.00000000	      0.00000000	      0.00000000	      0.00000000	      0.00000000	      0.00000000	      0.00000000	      0.00000000	      0.00000000
      0.86700000	     -7.46735348	    514.38536495	    -18.06144416	     -0.13018552	     -0.00200000	      0.33869008	      0.00000000	      1.79990996	      0.00000000	      0.00000000	      0.00000000	      0.00000000	      0.00000000	      0.00000000	      0.00000000	      0.00000000	      0.00000000	      0.00000000
      0.86800000	     -7.45044136	    513.97856325	    -17.91621894	     -0.12948707	     -0.00200000	      0.33866712	      0.00000000	      1.81157043	      0.00000000	      0.00000000	      0.00000000	      0.00000000	      0.00000000	      0.00000000	      0.00000000	      0.00000000	      0.00000000	      0.00000000
      0.86900000	     -7.43852067	    513.58430460	    -17.76923984	     -0.12878702	     -0.00200000	      0.33864300	      0.00000000	      1.82334066	      0.00000000	      0.00000000	      0.00000000	      0.00000000	      0.00000000	      0.00000000	      0.00000000	      0.00000000	      0.00000000	      0.00000000
      0.87000000	     -7.43044168	    513.19985092	    -17.62109250	     -0.12808586	     -0.00200000	      0.33861800	      0.00000000	      1.83519470	      0.00000000	      0.00000000	      0.00000000	      0.00000000	      0.00000000	      0.00000000	      0.00000000	      0.00000000	      0.00000000	      0.00000000
      0.87100000	     -7.42697227	    512.82710582	    -17.47177765	     -0.12738339	     -0.00200000	      0.33859197	      0.00000000	      1.84714411	      0.00000000	      0.00000000	      0.00000000	      0.00000000	      0.00000000	      0.00000000	      0.00000000	      0.00000000	      0.00000000	      0.00000000
      0.87200000	     -7.42703583	    512.46343553	    -17.32175946	     -0.12668001	     -0.00200000	      0.33856517	      0.00000000	      1.85916290	      0.00000000	      0.00000000	      0.00000000	      0.00000000	      0.00000000	      0.00000000	      0.00000000	      0.00000000	      0.00000000	      0.00000000
      0.87300000	     -7.43131852	    512.11053506	    -17.17113629	     -0.12597560	     -0.00200000	      0.33853751	      0.00000000	      1.87125613	      0.00000000	      0.00000000	      0.00000000	      0.00000000	      0.00000000	      0.00000000	      0.00000000	      0.00000000	      0.00000000	      0.00000000
      0.87400000	     -7.43881660	    511.76592708	    -17.02024341	     -0.12527044	     -0.00200000	      0.33850916	      0.00000000	      1.88339757	      0.00000000	      0.00000000	      0.00000000	      0.00000000	      0.00000000	      0.00000000	      0.00000000	      0.00000000	      0.00000000	      0.00000000
      0.87500000	     -7.45013426	    511.43115014	    -16.86927080	     -0.12456443	     -0.00200000	      0.33848003	      0.00000000	      1.89558215	      0.00000000	      0.00000000	      0.00000000	      0.00000000	      0.00000000	      0.00000000	      0.00000000	      0.00000000	      0.00000000	      0.00000000
      0.87600000	     -7.46434508	    511.10398769	    -16.71843678	     -0.12385785	     -0.00200000	      0.33845027	      0.00000000	      1.90778789	      0.00000000	      0.00000000	      0.00000000	      0.00000000	      0.00000000	      0.00000000	      0.00000000	      0.00000000	      0.00000000	      0.00000000
      0.87700000	     -7.48195918	    510.78584790	    -16.56802446	     -0.12315063	     -0.00200000	      0.33841979	      0.00000000	      1.91999947	      0.00000000	      0.00000000	      0.00000000	      0.00000000	      0.00000000	      0.00000000	      0.00000000	      0.00000000	      0.00000000	      0.00000000
      0.87800000	     -7.50211673	    510.47464460	    -16.41814858	     -0.12244299	     -0.00200000	      0.33838879	      0.00000000	      1.93219917	      0.00000000	      0.00000000	      0.00000000	      0.00000000	      0.00000000	      0.00000000	      0.00000000	      0.00000000	      0.00000000	      0.00000000
      0.87900000	     -7.52522214	    510.17170772	    -16.26919582	     -0.12173494	     -0.00200000	      0.33835721	      0.00000000	      1.94436030	      0.00000000	      0.00000000	      0.00000000	      0.00000000	      0.00000000	      0.00000000	      0.00000000	      0.00000000	      0.00000000	      0.00000000
      0.88000000	     -7.55050126	    509.87513363	    -16.12118185	     -0.12102664	     -0.00200000	      0.33832519	      0.00000000	      1.95647125	      0.00000000	      0.00000000	      0.00000000	      0.00000000	      0.00000000	      0.00000000	      0.00000000	      0.00000000	      0.00000000	      0.00000000
      0.88100000	     -7.57827261	    509.58599150	    -15.97457826	     -0.12031808	     -0.00200000	      0.33829272	      0.00000000	      1.96849622	      0.00000000	      0.00000000	      0.00000000	      0.00000000	      0.00000000	      0.00000000	      0.00000000	      0.00000000	      0.00000000	      0.00000000
      0.88200000	     -7.60786096	    509.30258632	    -15.82928002	     -0.11960939	     -0.00200000	      0.33825992	      0.00000000	      1.98043412	      0.00000000	      0.00000000	      0.00000000	      0.00000000	      0.00000000	      0.00000000	      0.00000000	      0.00000000	      0.00000000	      0.00000000
      0.88300000	     -7.63950497	    509.02585685	    -15.68582132	     -0.11890063	     -0.00200000	      0.33822679	      0.00000000	      1.99224160	      0.00000000	      0.00000000	      0.00000000	      0.00000000	      0.00000000	      0.00000000	      0.00000000	      0.00000000	      0.00000000	      0.00000000
      0.88400000	     -7.67261954	    508.75418633	    -15.54398984	     -0.11819184	     -0.00200000	      0.33819342	      0.00000000	      2.00392544	      0.00000000	      0.00000000	      0.00000000	      0.00000000	      0.00000000	      0.00000000	      0.00000000	      0.00000000	      0.00000000	      0.00000000
      0.88500000	     -7.70735205	    508.48848745	    -15.40436372	     -0.11748312	     -0.00200000	      0.33815978	      0.00000000	      2.01543235	      0.00000000	      0.00000000	      0.00000000	      0.00000000	      0.00000000	      0.00000000	      0.00000000	      0.00000000	      0.00000000	      0.00000000
      0.88600000	     -7.74320029	    508.22727382	    -15.26663005	     -0.11677447	     -0.00200000	      0.33812597	      0.00000000	      2.02677990	      0.00000000	      0.00000000	      0.00000000	      0.00000000	      0.00000000	      0.00000000	      0.00000000	      0.00000000	      0.00000000	      0.00000000
      0.88700000	     -7.78022292	    507.97137991	    -15.13141021	     -0.11606598	     -0.00200000	      0.33809193	      0.00000000	      2.03790673	      0.00000000	      0.00000000	      0.00000000	      0.00000000	      0.00000000	      0.00000000	      0.00000000	      0.00000000	      0.00000000	      0.00000000
      0.88800000	     -7.81801436	    507.71960616	    -14.99830931	     -0.11535769	     -0.00200000	      0.33805774	      0.00000000	      2.04884330	      0.00000000	      0.00000000	      0.00000000	      0.00000000	      0.00000000	      0.00000000	      0.00000000	      0.00000000	      0.00000000	      0.00000000
      0.88900000	     -7.85655901	    507.47273490	    -14.86799121	     -0.11464975	     -0.00200000	      0.33802339	      0.00000000	      2.05952448	      0.00000000	      0.00000000	      0.00000000	      0.00000000	      0.00000000	      0.00000000	      0.00000000	      0.00000000	      0.00000000	      0.00000000
      0.89000000	     -7.89554603	    507.22967088	    -14.74000067	     -0.11394216	     -0.00200000	      0.33798894	      0.00000000	      2.06998821	      0.00000000	      0.00000000	      0.00000000	      0.00000000	      0.00000000	      0.00000000	      0.00000000	      0.00000000	      0.00000000	      0.00000000
      0.89100000	     -7.93488976	    506.99117035	    -14.61503729	     -0.11323508	     -0.00200000	      0.33795436	      0.00000000	      2.08016326	      0.00000000	      0.00000000	      0.00000000	      0.00000000	      0.00000000	      0.00000000	      0.00000000	      0.00000000	      0.00000000	      0.00000000
      0.89200000	     -7.97436666	    506.75626844	    -14.49258029	     -0.11252852	     -0.00200000	      0.33791971	      0.00000000	      2.09009544	      0.00000000	      0.00000000	      0.00000000	      0.00000000	      0.00000000	      0.00000000	      0.00000000	      0.00000000	      0.00000000	      0.00000000
      0.89300000	     -8.01382260	    506.52566925	    -14.37334120	     -0.11182264	     -0.00200000	      0.33788499	      0.00000000	      2.09971066	      0.00000000	      0.00000000	      0.00000000	      0.00000000	      0.00000000	      0.00000000	      0.00000000	      0.00000000	      0.00000000	      0.00000000
      0.89400000	     -8.05311836	    506.29856437	    -14.25673664	     -0.11111742	     -0.00200000	      0.33785021	      0.00000000	      2.10906268	      0.00000000	      0.00000000	      0.00000000	      0.00000000	      0.00000000	      0.00000000	      0.00000000	      0.00000000	      0.00000000	      0.00000000
      0.89500000	     -8.09204392	    506.07573614	    -14.14348185	     -0.11041310	     -0.00200000	      0.33781536	      0.00000000	      2.11807567	      0.00000000	      0.00000000	      0.00000000	      0.00000000	      0.00000000	      0.00000000	      0.00000000	      0.00000000	      0.00000000	      0.00000000
      0.89600000	     -8.13053828	    505.85629791	    -14.03294206	     -0.10970957	     -0.00200000	      0.33778046	      0.00000000	      2.12681045	      0.00000000	      0.00000000	      0.00000000	      0.00000000	      0.00000000	      0.00000000	      0.00000000	      0.00000000	      0.00000000	      0.00000000
      0.89700000	     -8.16832203	    505.64118847	    -13.92582804	     -0.10900714	     -0.00200000	      0.33774547	      0.00000000	      2.13518767	      0.00000000	      0.00000000	      0.00000000	      0.00000000	      0.00000000	      0.00000000	      0.00000000	      0.00000000	      0.00000000	      0.00000000
      0.89800000	     -8.20539892	    505.42972982	    -13.82148117	     -0.10830571	     -0.00200000	      0.33771039	      0.00000000	      2.14327142	      0.00000000	      0.00000000	      0.00000000	      0.00000000	      0.00000000	      0.00000000	      0.00000000	      0.00000000	      0.00000000	      0.00000000
